<svg xmlns="http://www.w3.org/2000/svg" width="1024" height="1536" viewBox="0 0 1024 1536">
<path d="M 636,868 L 636,871 L 635,872 L 635,875 L 634,876 L 634,877 L 635,878 L 635,882 L 636,883 L 636,884 L 637,885 L 637,886 L 640,889 L 640,890 L 642,892 L 643,892 L 647,896 L 648,896 L 650,898 L 651,898 L 652,899 L 653,899 L 655,901 L 656,901 L 657,902 L 658,902 L 659,903 L 660,903 L 662,905 L 663,905 L 664,906 L 665,906 L 667,908 L 668,908 L 669,909 L 670,909 L 671,910 L 672,910 L 673,911 L 674,911 L 676,913 L 677,913 L 678,914 L 679,914 L 681,916 L 682,916 L 683,917 L 684,917 L 685,918 L 686,918 L 687,919 L 688,919 L 689,920 L 690,920 L 692,922 L 692,923 L 693,924 L 693,925 L 696,928 L 696,929 L 701,934 L 702,934 L 704,936 L 705,936 L 707,938 L 709,938 L 710,939 L 711,939 L 712,940 L 715,940 L 716,941 L 724,941 L 725,940 L 729,940 L 730,939 L 732,939 L 733,938 L 734,938 L 736,936 L 737,936 L 743,930 L 743,929 L 744,928 L 744,927 L 745,926 L 745,923 L 746,922 L 746,916 L 745,915 L 745,911 L 744,910 L 744,908 L 743,907 L 743,906 L 742,905 L 742,904 L 740,902 L 740,901 L 732,893 L 731,893 L 727,889 L 726,889 L 723,886 L 722,886 L 720,884 L 719,884 L 718,883 L 717,883 L 716,882 L 715,882 L 714,881 L 710,881 L 709,882 L 706,882 L 704,884 L 703,884 L 702,885 L 702,886 L 701,887 L 701,889 L 700,890 L 700,891 L 701,892 L 701,895 L 703,897 L 703,898 L 704,898 L 707,901 L 708,901 L 709,902 L 710,902 L 712,904 L 713,904 L 715,906 L 716,906 L 724,914 L 724,915 L 725,916 L 725,920 L 723,922 L 716,922 L 715,921 L 714,921 L 713,920 L 714,919 L 715,919 L 719,915 L 719,914 L 716,911 L 715,911 L 712,908 L 711,908 L 709,906 L 700,906 L 699,905 L 698,905 L 697,904 L 696,904 L 695,903 L 694,903 L 693,902 L 692,902 L 691,901 L 690,901 L 688,899 L 687,899 L 686,898 L 685,898 L 683,896 L 682,896 L 681,895 L 680,895 L 678,893 L 677,893 L 675,891 L 674,891 L 673,890 L 672,890 L 671,889 L 670,889 L 668,887 L 667,887 L 666,886 L 665,886 L 663,884 L 662,884 L 661,883 L 660,883 L 658,881 L 657,881 L 651,875 L 650,875 L 649,874 L 648,874 L 646,872 L 645,872 L 644,871 L 643,871 L 642,870 L 641,870 L 640,869 L 639,869 L 638,868 Z" fill="black"/>
<path d="M 323,865 L 322,866 L 321,866 L 320,867 L 319,867 L 318,868 L 317,868 L 315,870 L 314,870 L 313,871 L 312,871 L 310,873 L 309,873 L 308,874 L 308,875 L 307,876 L 307,877 L 302,882 L 301,882 L 299,884 L 298,884 L 297,885 L 296,885 L 295,886 L 294,886 L 293,887 L 292,887 L 290,889 L 289,889 L 288,890 L 287,890 L 285,892 L 284,892 L 283,893 L 282,893 L 281,894 L 280,894 L 278,896 L 277,896 L 276,897 L 275,897 L 274,898 L 273,898 L 271,900 L 270,900 L 269,901 L 268,901 L 266,903 L 265,903 L 264,904 L 263,904 L 262,905 L 254,905 L 253,906 L 252,906 L 249,909 L 248,909 L 244,913 L 244,915 L 246,917 L 247,917 L 249,919 L 248,920 L 240,920 L 237,917 L 237,915 L 238,914 L 238,913 L 244,907 L 245,907 L 247,905 L 248,905 L 250,903 L 251,903 L 253,901 L 254,901 L 256,899 L 257,899 L 258,898 L 259,898 L 261,896 L 262,896 L 264,894 L 264,893 L 265,892 L 265,888 L 266,887 L 265,886 L 265,883 L 261,879 L 259,879 L 258,878 L 252,878 L 251,879 L 250,879 L 249,880 L 248,880 L 246,882 L 245,882 L 244,883 L 243,883 L 241,885 L 240,885 L 238,887 L 237,887 L 234,890 L 233,890 L 224,899 L 224,900 L 222,902 L 222,903 L 220,905 L 220,906 L 219,907 L 219,909 L 218,910 L 218,913 L 217,914 L 217,919 L 218,920 L 218,923 L 219,924 L 219,925 L 220,926 L 220,927 L 227,934 L 228,934 L 230,936 L 232,936 L 233,937 L 234,937 L 235,938 L 240,938 L 241,939 L 246,939 L 247,938 L 251,938 L 252,937 L 254,937 L 255,936 L 257,936 L 258,935 L 259,935 L 261,933 L 262,933 L 271,924 L 271,923 L 272,922 L 272,921 L 276,917 L 277,917 L 278,916 L 279,916 L 281,914 L 282,914 L 284,912 L 285,912 L 286,911 L 287,911 L 288,910 L 289,910 L 290,909 L 291,909 L 293,907 L 294,907 L 295,906 L 296,906 L 297,905 L 298,905 L 299,904 L 300,904 L 302,902 L 303,902 L 304,901 L 305,901 L 306,900 L 307,900 L 309,898 L 310,898 L 311,897 L 312,897 L 314,895 L 315,895 L 322,888 L 322,887 L 323,886 L 323,885 L 324,884 L 324,883 L 325,882 L 325,879 L 326,878 L 326,869 L 325,868 L 325,865 Z" fill="black"/>
<path d="M 666,832 L 665,833 L 662,833 L 661,834 L 660,834 L 659,835 L 658,835 L 657,836 L 656,836 L 653,839 L 652,839 L 652,841 L 653,841 L 655,843 L 656,843 L 658,845 L 659,845 L 660,846 L 661,846 L 663,848 L 664,848 L 665,849 L 666,849 L 667,850 L 668,850 L 669,851 L 673,851 L 674,852 L 676,852 L 677,853 L 678,853 L 680,855 L 681,855 L 682,856 L 683,856 L 684,857 L 685,857 L 687,859 L 688,859 L 689,860 L 690,860 L 691,861 L 692,861 L 694,863 L 695,863 L 696,864 L 697,864 L 698,865 L 699,865 L 700,866 L 701,866 L 703,868 L 704,868 L 705,869 L 706,869 L 707,870 L 708,870 L 709,871 L 710,871 L 711,872 L 712,872 L 713,873 L 714,873 L 715,874 L 716,874 L 717,875 L 718,875 L 720,877 L 721,877 L 723,879 L 723,880 L 724,881 L 724,882 L 727,885 L 728,885 L 732,889 L 733,889 L 739,895 L 741,895 L 741,894 L 742,893 L 742,891 L 743,890 L 743,879 L 742,878 L 742,876 L 741,875 L 741,874 L 740,873 L 740,872 L 738,870 L 738,869 L 734,865 L 733,865 L 730,862 L 729,862 L 727,860 L 726,860 L 725,859 L 724,859 L 723,858 L 722,858 L 721,857 L 720,857 L 718,855 L 716,855 L 714,853 L 713,853 L 712,852 L 711,852 L 710,851 L 709,851 L 707,849 L 706,849 L 705,848 L 704,848 L 703,847 L 702,847 L 700,845 L 699,845 L 698,844 L 697,844 L 696,843 L 695,843 L 694,842 L 693,842 L 691,840 L 690,840 L 689,839 L 688,839 L 687,838 L 686,838 L 684,836 L 683,836 L 682,835 L 681,835 L 680,834 L 678,834 L 677,833 L 672,833 L 671,832 Z" fill="black"/>
<path d="M 284,831 L 283,832 L 281,832 L 280,833 L 278,833 L 277,834 L 276,834 L 274,836 L 273,836 L 272,837 L 271,837 L 270,838 L 269,838 L 267,840 L 266,840 L 265,841 L 264,841 L 263,842 L 262,842 L 260,844 L 259,844 L 258,845 L 257,845 L 256,846 L 255,846 L 254,847 L 253,847 L 252,848 L 251,848 L 249,850 L 248,850 L 247,851 L 246,851 L 244,853 L 243,853 L 242,854 L 241,854 L 239,856 L 238,856 L 237,857 L 236,857 L 235,858 L 234,858 L 232,860 L 231,860 L 223,868 L 223,869 L 222,870 L 222,871 L 221,872 L 221,873 L 220,874 L 220,878 L 219,879 L 219,884 L 220,885 L 220,888 L 221,889 L 221,892 L 222,893 L 222,894 L 224,892 L 225,892 L 228,889 L 229,889 L 232,886 L 233,886 L 235,884 L 236,884 L 237,883 L 237,882 L 238,881 L 238,880 L 239,879 L 239,878 L 244,873 L 245,873 L 247,871 L 248,871 L 249,870 L 250,870 L 251,869 L 252,869 L 253,868 L 254,868 L 256,866 L 257,866 L 258,865 L 259,865 L 260,864 L 261,864 L 262,863 L 263,863 L 265,861 L 266,861 L 267,860 L 268,860 L 270,858 L 271,858 L 272,857 L 273,857 L 274,856 L 275,856 L 276,855 L 277,855 L 279,853 L 280,853 L 281,852 L 282,852 L 283,851 L 284,851 L 285,850 L 287,850 L 288,849 L 289,849 L 290,848 L 292,848 L 293,847 L 294,847 L 295,846 L 296,846 L 298,844 L 299,844 L 300,843 L 301,843 L 303,841 L 304,841 L 306,839 L 307,839 L 307,838 L 304,835 L 303,835 L 301,833 L 300,833 L 299,832 L 296,832 L 295,831 Z" fill="black"/>
<path d="M 605,823 L 604,824 L 603,824 L 602,825 L 601,825 L 600,826 L 600,827 L 598,829 L 598,835 L 599,836 L 599,837 L 604,842 L 605,842 L 606,843 L 607,843 L 609,845 L 610,845 L 611,846 L 612,846 L 614,848 L 615,848 L 616,849 L 617,849 L 619,851 L 620,851 L 621,852 L 622,852 L 623,853 L 624,853 L 625,854 L 626,854 L 628,856 L 629,856 L 631,858 L 632,858 L 634,860 L 635,860 L 637,862 L 638,862 L 639,863 L 640,863 L 642,865 L 643,865 L 644,866 L 645,866 L 646,867 L 647,867 L 649,869 L 650,869 L 651,870 L 652,870 L 653,871 L 654,871 L 656,873 L 657,873 L 658,874 L 659,874 L 660,875 L 662,875 L 663,876 L 669,876 L 670,875 L 671,875 L 675,871 L 675,869 L 676,868 L 676,865 L 675,864 L 675,862 L 674,861 L 674,860 L 672,858 L 671,858 L 669,856 L 668,856 L 666,854 L 665,854 L 664,853 L 663,853 L 662,852 L 661,852 L 659,850 L 658,850 L 657,849 L 656,849 L 654,847 L 653,847 L 652,846 L 651,846 L 650,845 L 649,845 L 647,843 L 646,843 L 645,842 L 644,842 L 642,840 L 641,840 L 640,839 L 639,839 L 638,838 L 637,838 L 635,836 L 634,836 L 632,834 L 631,834 L 630,833 L 629,833 L 627,831 L 626,831 L 625,830 L 624,830 L 622,828 L 621,828 L 620,827 L 619,827 L 618,826 L 617,826 L 615,824 L 613,824 L 612,823 Z" fill="black"/>
<path d="M 348,821 L 347,822 L 346,822 L 345,823 L 344,823 L 343,824 L 342,824 L 341,825 L 340,825 L 338,827 L 337,827 L 336,828 L 335,828 L 334,829 L 333,829 L 331,831 L 330,831 L 329,832 L 328,832 L 326,834 L 325,834 L 324,835 L 323,835 L 321,837 L 320,837 L 319,838 L 318,838 L 316,840 L 315,840 L 314,841 L 313,841 L 312,842 L 311,842 L 310,843 L 309,843 L 307,845 L 306,845 L 305,846 L 304,846 L 303,847 L 302,847 L 300,849 L 299,849 L 298,850 L 297,850 L 296,851 L 295,851 L 293,853 L 292,853 L 291,854 L 290,854 L 289,855 L 288,855 L 284,859 L 284,860 L 283,861 L 283,867 L 284,868 L 284,869 L 285,870 L 285,871 L 287,873 L 288,873 L 289,874 L 291,874 L 292,875 L 293,875 L 294,874 L 296,874 L 297,873 L 299,873 L 300,872 L 301,872 L 303,870 L 304,870 L 305,869 L 306,869 L 308,867 L 309,867 L 310,866 L 311,866 L 312,865 L 313,865 L 314,864 L 315,864 L 317,862 L 318,862 L 319,861 L 320,861 L 321,860 L 322,860 L 324,858 L 325,858 L 326,857 L 327,857 L 329,855 L 330,855 L 331,854 L 332,854 L 333,853 L 334,853 L 336,851 L 337,851 L 338,850 L 339,850 L 340,849 L 341,849 L 343,847 L 344,847 L 345,846 L 346,846 L 347,845 L 348,845 L 350,843 L 351,843 L 352,842 L 353,842 L 355,840 L 356,840 L 361,835 L 361,834 L 362,833 L 362,828 L 361,827 L 361,826 L 360,825 L 360,824 L 358,822 L 357,822 L 356,821 Z" fill="black"/>
<path d="M 537,811 L 537,812 L 536,813 L 536,823 L 537,824 L 537,826 L 539,828 L 539,829 L 541,831 L 541,832 L 544,835 L 545,835 L 548,838 L 549,838 L 551,840 L 552,840 L 553,841 L 554,841 L 556,843 L 557,843 L 558,844 L 559,844 L 560,845 L 561,845 L 562,846 L 563,846 L 565,848 L 566,848 L 567,849 L 568,849 L 569,850 L 570,850 L 571,851 L 572,851 L 574,853 L 575,853 L 576,854 L 577,854 L 578,855 L 579,855 L 580,856 L 581,856 L 583,858 L 584,858 L 585,859 L 586,859 L 588,861 L 589,861 L 590,862 L 592,862 L 593,863 L 595,863 L 596,864 L 610,864 L 611,863 L 612,863 L 613,862 L 614,862 L 615,861 L 616,861 L 620,857 L 620,856 L 619,856 L 617,854 L 616,854 L 614,852 L 613,852 L 612,851 L 611,851 L 610,850 L 609,850 L 607,848 L 605,848 L 604,847 L 600,847 L 599,846 L 597,846 L 595,844 L 594,844 L 593,843 L 592,843 L 590,841 L 589,841 L 588,840 L 587,840 L 586,839 L 585,839 L 583,837 L 582,837 L 581,836 L 580,836 L 578,834 L 577,834 L 576,833 L 575,833 L 574,832 L 573,832 L 571,830 L 570,830 L 569,829 L 568,829 L 566,827 L 565,827 L 564,826 L 563,826 L 562,825 L 561,825 L 560,824 L 559,824 L 557,822 L 556,822 L 553,819 L 552,819 L 551,818 L 550,818 L 549,817 L 548,817 L 547,816 L 546,816 L 545,815 L 544,815 L 543,814 L 542,814 L 541,813 L 540,813 L 539,812 L 538,812 Z" fill="black"/>
<path d="M 770,809 L 769,810 L 768,810 L 768,890 L 767,891 L 767,894 L 766,895 L 766,897 L 764,899 L 764,900 L 758,906 L 757,906 L 755,908 L 754,908 L 754,927 L 756,927 L 757,926 L 760,926 L 761,925 L 763,925 L 764,924 L 765,924 L 767,922 L 768,922 L 769,921 L 770,921 L 773,918 L 774,918 L 775,917 L 775,916 L 780,911 L 780,910 L 781,909 L 781,908 L 783,906 L 783,904 L 784,903 L 784,901 L 785,900 L 785,896 L 786,895 L 786,811 L 785,810 L 782,810 L 781,809 Z" fill="black"/>
<path d="M 421,807 L 420,808 L 419,808 L 418,809 L 417,809 L 416,810 L 415,810 L 414,811 L 413,811 L 412,812 L 411,812 L 410,813 L 409,813 L 407,815 L 406,815 L 405,816 L 405,817 L 404,818 L 404,819 L 402,821 L 401,821 L 399,823 L 398,823 L 397,824 L 396,824 L 395,825 L 394,825 L 393,826 L 392,826 L 390,828 L 389,828 L 388,829 L 387,829 L 386,830 L 385,830 L 384,831 L 383,831 L 381,833 L 380,833 L 379,834 L 378,834 L 376,836 L 375,836 L 374,837 L 373,837 L 372,838 L 371,838 L 369,840 L 368,840 L 367,841 L 366,841 L 365,842 L 364,842 L 362,844 L 361,844 L 360,845 L 359,845 L 358,846 L 356,846 L 355,847 L 353,847 L 352,848 L 351,848 L 350,849 L 349,849 L 348,850 L 347,850 L 345,852 L 344,852 L 343,853 L 342,853 L 340,855 L 339,855 L 338,856 L 342,860 L 343,860 L 345,862 L 347,862 L 348,863 L 362,863 L 363,862 L 365,862 L 366,861 L 367,861 L 368,860 L 369,860 L 370,859 L 371,859 L 372,858 L 373,858 L 374,857 L 375,857 L 377,855 L 378,855 L 379,854 L 380,854 L 381,853 L 382,853 L 384,851 L 385,851 L 386,850 L 387,850 L 388,849 L 389,849 L 390,848 L 391,848 L 392,847 L 393,847 L 395,845 L 396,845 L 397,844 L 398,844 L 400,842 L 401,842 L 402,841 L 403,841 L 405,839 L 406,839 L 407,838 L 408,838 L 409,837 L 410,837 L 412,835 L 413,835 L 421,827 L 421,826 L 422,825 L 422,824 L 423,823 L 423,821 L 424,820 L 424,810 L 423,809 L 423,807 Z" fill="black"/>
<path d="M 498,797 L 497,798 L 496,798 L 495,799 L 494,799 L 492,801 L 491,801 L 490,802 L 489,802 L 487,804 L 486,804 L 485,805 L 484,805 L 483,806 L 482,806 L 481,807 L 480,807 L 479,808 L 478,808 L 477,809 L 476,809 L 475,810 L 473,810 L 472,811 L 470,811 L 469,812 L 466,812 L 465,813 L 459,813 L 458,814 L 455,814 L 454,813 L 450,813 L 449,812 L 448,812 L 447,811 L 446,811 L 445,810 L 444,810 L 439,805 L 438,805 L 436,803 L 435,804 L 435,805 L 434,806 L 434,809 L 435,810 L 435,814 L 434,815 L 434,820 L 433,821 L 433,823 L 432,824 L 432,826 L 431,827 L 431,828 L 429,830 L 429,831 L 427,833 L 427,834 L 421,840 L 420,840 L 417,843 L 416,843 L 415,844 L 414,844 L 412,846 L 411,846 L 410,847 L 409,847 L 407,849 L 406,849 L 405,850 L 404,850 L 402,852 L 401,852 L 400,853 L 399,853 L 398,854 L 397,854 L 395,856 L 394,856 L 393,857 L 392,857 L 390,859 L 389,859 L 388,860 L 387,860 L 386,861 L 385,861 L 384,862 L 383,862 L 382,863 L 381,863 L 379,865 L 378,865 L 376,867 L 375,867 L 374,868 L 373,868 L 372,869 L 371,869 L 370,870 L 368,870 L 367,871 L 365,871 L 364,872 L 360,872 L 359,873 L 350,873 L 349,872 L 343,872 L 342,873 L 340,873 L 336,877 L 336,878 L 335,879 L 335,882 L 334,883 L 334,884 L 333,885 L 333,887 L 332,888 L 332,889 L 330,891 L 330,892 L 328,894 L 328,895 L 322,901 L 321,901 L 319,903 L 318,903 L 316,905 L 315,905 L 314,906 L 313,906 L 311,908 L 310,908 L 309,909 L 308,909 L 306,911 L 305,911 L 304,912 L 303,912 L 302,913 L 301,913 L 299,915 L 298,915 L 297,916 L 296,916 L 295,917 L 294,917 L 293,918 L 292,918 L 291,919 L 290,919 L 289,920 L 288,920 L 287,921 L 286,921 L 284,923 L 283,923 L 281,925 L 284,928 L 286,928 L 287,929 L 676,929 L 677,928 L 678,928 L 680,926 L 680,925 L 679,925 L 677,923 L 676,923 L 675,922 L 674,922 L 673,921 L 672,921 L 670,919 L 669,919 L 668,918 L 667,918 L 666,917 L 665,917 L 664,916 L 663,916 L 661,914 L 660,914 L 659,913 L 658,913 L 656,911 L 655,911 L 654,910 L 653,910 L 651,908 L 650,908 L 649,907 L 648,907 L 646,905 L 645,905 L 644,904 L 643,904 L 641,902 L 640,902 L 630,892 L 630,891 L 628,889 L 628,888 L 627,887 L 627,885 L 626,884 L 626,883 L 625,882 L 625,880 L 624,879 L 624,877 L 623,876 L 623,875 L 621,873 L 620,873 L 619,872 L 616,872 L 615,873 L 612,873 L 611,874 L 605,874 L 604,875 L 602,875 L 601,874 L 596,874 L 595,873 L 593,873 L 592,872 L 590,872 L 589,871 L 588,871 L 587,870 L 586,870 L 585,869 L 584,869 L 583,868 L 582,868 L 581,867 L 580,867 L 578,865 L 577,865 L 576,864 L 575,864 L 573,862 L 572,862 L 571,861 L 570,861 L 569,860 L 568,860 L 567,859 L 566,859 L 564,857 L 563,857 L 562,856 L 561,856 L 559,854 L 558,854 L 557,853 L 556,853 L 555,852 L 554,852 L 552,850 L 551,850 L 550,849 L 549,849 L 548,848 L 547,848 L 546,847 L 545,847 L 543,845 L 542,845 L 533,836 L 533,835 L 531,833 L 531,832 L 529,830 L 529,828 L 528,827 L 528,826 L 527,825 L 527,821 L 526,820 L 526,814 L 525,813 L 525,810 L 523,808 L 523,807 L 522,806 L 520,806 L 519,805 L 515,805 L 514,804 L 512,804 L 511,803 L 510,803 L 509,802 L 508,802 L 507,801 L 506,801 L 504,799 L 503,799 L 502,798 L 501,798 L 500,797 Z" fill="black"/>
<path d="M 525,775 L 524,776 L 524,777 L 519,782 L 519,783 L 516,786 L 516,787 L 514,789 L 514,791 L 518,795 L 519,795 L 520,796 L 521,796 L 522,797 L 523,797 L 524,798 L 525,798 L 527,800 L 528,800 L 529,801 L 530,801 L 531,802 L 532,802 L 534,804 L 535,804 L 536,805 L 537,805 L 538,806 L 539,806 L 541,808 L 542,808 L 543,809 L 544,809 L 545,810 L 546,810 L 547,811 L 548,811 L 549,812 L 550,812 L 552,814 L 553,814 L 554,815 L 555,815 L 556,816 L 557,816 L 558,817 L 559,817 L 560,818 L 569,818 L 570,817 L 571,817 L 574,814 L 574,813 L 575,812 L 575,806 L 574,805 L 574,804 L 569,799 L 568,799 L 567,798 L 566,798 L 564,796 L 563,796 L 562,795 L 561,795 L 560,794 L 559,794 L 558,793 L 557,793 L 556,792 L 555,792 L 554,791 L 553,791 L 551,789 L 550,789 L 549,788 L 548,788 L 547,787 L 546,787 L 544,785 L 543,785 L 542,784 L 541,784 L 540,783 L 539,783 L 537,781 L 536,781 L 535,780 L 534,780 L 533,779 L 532,779 L 530,777 L 529,777 L 528,776 L 527,776 L 526,775 Z" fill="black"/>
<path d="M 563,774 L 562,775 L 560,775 L 559,776 L 558,776 L 557,777 L 556,777 L 550,783 L 552,785 L 553,785 L 555,787 L 556,787 L 557,788 L 558,788 L 560,790 L 561,790 L 562,791 L 563,791 L 564,792 L 574,792 L 575,793 L 576,793 L 577,794 L 578,794 L 579,795 L 580,795 L 581,796 L 582,796 L 584,798 L 585,798 L 586,799 L 587,799 L 588,800 L 589,800 L 591,802 L 592,802 L 593,803 L 594,803 L 596,805 L 597,805 L 598,806 L 599,806 L 600,807 L 601,807 L 603,809 L 604,809 L 605,810 L 606,810 L 607,811 L 608,811 L 609,812 L 610,812 L 611,813 L 612,813 L 614,815 L 615,815 L 620,820 L 620,821 L 621,822 L 621,823 L 622,823 L 623,824 L 624,824 L 625,825 L 626,825 L 627,826 L 628,826 L 630,828 L 631,828 L 632,829 L 633,829 L 634,830 L 635,830 L 636,831 L 636,829 L 637,828 L 637,816 L 636,815 L 636,813 L 635,812 L 635,811 L 633,809 L 633,808 L 627,802 L 626,802 L 623,799 L 622,799 L 621,798 L 620,798 L 619,797 L 618,797 L 616,795 L 615,795 L 614,794 L 613,794 L 612,793 L 611,793 L 610,792 L 609,792 L 607,790 L 606,790 L 605,789 L 604,789 L 603,788 L 602,788 L 600,786 L 599,786 L 598,785 L 597,785 L 596,784 L 595,784 L 594,783 L 593,783 L 591,781 L 590,781 L 588,779 L 587,779 L 586,778 L 585,778 L 584,777 L 583,777 L 582,776 L 580,776 L 579,775 L 576,775 L 575,774 Z" fill="black"/>
<path d="M 383,772 L 382,773 L 379,773 L 378,774 L 376,774 L 375,775 L 374,775 L 373,776 L 372,776 L 371,777 L 369,777 L 367,779 L 366,779 L 365,780 L 364,780 L 362,782 L 361,782 L 360,783 L 359,783 L 357,785 L 356,785 L 355,786 L 354,786 L 353,787 L 352,787 L 350,789 L 349,789 L 348,790 L 347,790 L 346,791 L 345,791 L 343,793 L 342,793 L 341,794 L 340,794 L 339,795 L 338,795 L 337,796 L 336,796 L 334,798 L 333,798 L 332,799 L 331,799 L 327,803 L 326,803 L 321,808 L 321,809 L 320,810 L 320,811 L 319,812 L 319,813 L 318,814 L 318,818 L 317,819 L 317,822 L 318,823 L 318,827 L 319,828 L 319,830 L 320,831 L 321,831 L 322,830 L 323,830 L 324,829 L 325,829 L 326,828 L 327,828 L 328,827 L 329,827 L 331,825 L 332,825 L 334,823 L 335,823 L 335,822 L 336,821 L 336,820 L 337,819 L 337,818 L 340,815 L 341,815 L 343,813 L 344,813 L 345,812 L 346,812 L 348,810 L 349,810 L 350,809 L 351,809 L 352,808 L 353,808 L 354,807 L 355,807 L 357,805 L 358,805 L 359,804 L 360,804 L 362,802 L 363,802 L 364,801 L 365,801 L 367,799 L 369,799 L 371,797 L 372,797 L 373,796 L 374,796 L 375,795 L 376,795 L 378,793 L 380,793 L 381,792 L 382,792 L 383,791 L 384,791 L 385,790 L 389,790 L 390,789 L 391,789 L 393,787 L 394,787 L 395,786 L 396,786 L 397,785 L 398,785 L 400,783 L 401,783 L 402,782 L 403,782 L 405,780 L 401,776 L 400,776 L 398,774 L 397,774 L 396,773 L 393,773 L 392,772 Z" fill="black"/>
<path d="M 457,758 L 456,759 L 454,759 L 453,760 L 452,760 L 451,761 L 450,761 L 449,762 L 448,762 L 446,764 L 445,764 L 444,765 L 443,765 L 442,766 L 441,766 L 439,768 L 438,768 L 437,769 L 436,769 L 435,770 L 434,770 L 433,771 L 432,771 L 430,773 L 429,773 L 428,774 L 427,774 L 426,775 L 425,775 L 423,777 L 422,777 L 421,778 L 420,778 L 419,779 L 418,779 L 417,780 L 416,780 L 414,782 L 413,782 L 412,783 L 411,783 L 410,784 L 409,784 L 407,786 L 406,786 L 405,787 L 404,787 L 402,789 L 401,789 L 400,790 L 399,790 L 398,791 L 397,791 L 396,792 L 395,792 L 394,793 L 393,793 L 392,794 L 391,794 L 389,796 L 388,796 L 384,800 L 384,801 L 383,802 L 383,805 L 382,806 L 383,807 L 383,810 L 385,812 L 385,813 L 386,814 L 387,814 L 388,815 L 390,815 L 391,816 L 394,816 L 395,815 L 397,815 L 398,814 L 399,814 L 401,812 L 402,812 L 403,811 L 404,811 L 405,810 L 406,810 L 407,809 L 408,809 L 410,807 L 411,807 L 412,806 L 413,806 L 414,805 L 415,805 L 417,803 L 418,803 L 419,802 L 420,802 L 422,800 L 423,800 L 424,799 L 425,799 L 426,798 L 427,798 L 429,796 L 430,796 L 431,795 L 432,795 L 433,794 L 434,794 L 435,793 L 436,793 L 437,792 L 438,792 L 440,790 L 441,790 L 442,789 L 443,789 L 444,788 L 445,788 L 446,787 L 447,787 L 449,785 L 450,785 L 451,784 L 452,784 L 453,783 L 454,783 L 456,781 L 457,781 L 458,780 L 459,780 L 460,779 L 461,779 L 463,777 L 464,777 L 466,775 L 466,774 L 467,773 L 467,772 L 468,771 L 468,766 L 467,765 L 467,764 L 466,763 L 466,762 L 464,760 L 463,760 L 462,759 L 460,759 L 459,758 Z" fill="black"/>
<path d="M 526,743 L 524,745 L 523,745 L 521,747 L 520,747 L 519,748 L 518,748 L 516,750 L 515,750 L 514,751 L 513,751 L 510,754 L 510,757 L 505,762 L 504,762 L 502,764 L 501,764 L 499,766 L 498,766 L 497,767 L 496,767 L 495,768 L 494,768 L 492,770 L 491,770 L 490,771 L 489,771 L 488,772 L 487,772 L 485,774 L 484,774 L 483,775 L 482,775 L 481,776 L 480,776 L 479,777 L 478,777 L 476,779 L 475,779 L 474,780 L 473,780 L 472,781 L 471,781 L 469,783 L 468,783 L 467,784 L 466,784 L 465,785 L 464,785 L 463,786 L 462,786 L 461,787 L 456,787 L 455,788 L 454,788 L 453,789 L 452,789 L 451,790 L 450,790 L 449,791 L 448,791 L 447,792 L 446,792 L 444,794 L 443,794 L 443,795 L 445,797 L 445,798 L 446,799 L 447,799 L 449,801 L 450,801 L 451,802 L 452,802 L 453,803 L 456,803 L 457,804 L 462,804 L 463,803 L 466,803 L 467,802 L 469,802 L 470,801 L 472,801 L 473,800 L 474,800 L 475,799 L 476,799 L 477,798 L 478,798 L 479,797 L 480,797 L 481,796 L 482,796 L 483,795 L 484,795 L 485,794 L 486,794 L 488,792 L 489,792 L 490,791 L 491,791 L 492,790 L 493,790 L 494,789 L 495,789 L 497,787 L 498,787 L 499,786 L 500,786 L 501,785 L 502,785 L 504,783 L 505,783 L 506,782 L 507,782 L 509,780 L 510,780 L 512,778 L 513,778 L 514,777 L 515,777 L 517,775 L 518,775 L 524,769 L 524,768 L 526,766 L 526,765 L 527,764 L 527,762 L 528,761 L 528,759 L 529,758 L 529,750 L 528,749 L 528,746 L 527,745 L 527,744 Z" fill="black"/>
<path d="M 434,717 L 433,718 L 431,718 L 427,722 L 427,723 L 426,724 L 426,731 L 428,733 L 429,733 L 432,730 L 433,730 L 435,728 L 436,728 L 437,727 L 438,727 L 440,725 L 441,725 L 442,724 L 443,724 L 445,722 L 447,722 L 447,721 L 446,721 L 444,719 L 443,719 L 442,718 L 440,718 L 439,717 Z" fill="black"/>
<path d="M 498,715 L 497,716 L 495,716 L 494,717 L 493,717 L 492,718 L 489,718 L 488,719 L 486,719 L 485,720 L 476,720 L 475,719 L 470,719 L 469,720 L 467,720 L 466,721 L 465,721 L 464,722 L 463,722 L 461,724 L 460,724 L 459,725 L 458,725 L 457,726 L 456,726 L 454,728 L 453,728 L 452,729 L 451,729 L 450,730 L 449,730 L 448,731 L 447,731 L 446,732 L 445,732 L 444,733 L 443,733 L 441,735 L 440,735 L 438,737 L 437,737 L 435,739 L 434,739 L 431,742 L 430,742 L 429,743 L 429,744 L 426,747 L 426,748 L 425,749 L 425,751 L 424,752 L 424,754 L 423,755 L 423,763 L 424,764 L 424,766 L 425,767 L 425,769 L 426,769 L 427,768 L 428,768 L 429,767 L 430,767 L 431,766 L 432,766 L 433,765 L 434,765 L 435,764 L 436,764 L 437,763 L 438,763 L 441,760 L 441,758 L 442,757 L 442,756 L 445,753 L 446,753 L 448,751 L 449,751 L 451,749 L 452,749 L 453,748 L 454,748 L 455,747 L 456,747 L 457,746 L 458,746 L 460,744 L 461,744 L 462,743 L 463,743 L 464,742 L 465,742 L 466,741 L 467,741 L 468,740 L 469,740 L 471,738 L 472,738 L 473,737 L 474,737 L 475,736 L 476,736 L 477,735 L 478,735 L 479,734 L 480,734 L 481,733 L 482,733 L 483,732 L 484,732 L 485,731 L 486,731 L 487,730 L 488,730 L 489,729 L 490,729 L 491,728 L 493,728 L 494,727 L 495,727 L 496,726 L 497,726 L 498,725 L 499,725 L 501,723 L 502,723 L 503,722 L 504,722 L 506,720 L 507,720 L 508,719 L 509,719 L 509,717 L 508,717 L 507,716 L 505,716 L 504,715 Z" fill="black"/>
<path d="M 372,709 L 372,711 L 371,712 L 371,721 L 372,722 L 372,724 L 373,725 L 373,726 L 375,728 L 375,729 L 380,734 L 381,734 L 382,735 L 383,735 L 384,736 L 385,736 L 387,738 L 388,738 L 389,739 L 390,739 L 391,740 L 392,740 L 393,741 L 394,741 L 395,742 L 396,742 L 397,743 L 398,743 L 399,744 L 400,744 L 401,745 L 402,745 L 403,746 L 404,746 L 405,747 L 406,747 L 408,749 L 409,749 L 410,750 L 412,750 L 414,752 L 414,751 L 415,750 L 415,749 L 416,748 L 416,747 L 417,746 L 417,745 L 419,743 L 419,742 L 423,738 L 422,737 L 421,737 L 420,736 L 419,736 L 418,735 L 417,735 L 416,734 L 415,734 L 413,732 L 412,732 L 411,731 L 410,731 L 409,730 L 408,730 L 407,729 L 406,729 L 405,728 L 404,728 L 403,727 L 402,727 L 401,726 L 400,726 L 399,725 L 398,725 L 397,724 L 396,724 L 394,722 L 393,722 L 391,720 L 390,720 L 386,716 L 385,716 L 384,715 L 383,715 L 381,713 L 380,713 L 379,712 L 378,712 L 377,711 L 376,711 L 375,710 L 374,710 L 373,709 Z" fill="black"/>
<path d="M 689,702 L 688,703 L 683,703 L 682,704 L 679,704 L 678,705 L 677,705 L 676,706 L 674,706 L 673,707 L 672,707 L 670,709 L 669,709 L 668,710 L 667,710 L 657,720 L 657,721 L 655,723 L 655,724 L 654,725 L 654,726 L 653,727 L 653,728 L 652,729 L 652,731 L 651,732 L 651,735 L 650,736 L 650,767 L 651,768 L 651,771 L 652,772 L 652,774 L 653,775 L 653,776 L 655,778 L 655,779 L 658,782 L 658,783 L 665,790 L 666,790 L 668,792 L 669,792 L 671,794 L 673,794 L 674,795 L 675,795 L 676,796 L 678,796 L 679,797 L 681,797 L 682,798 L 686,798 L 687,799 L 796,799 L 797,798 L 800,798 L 801,797 L 802,797 L 803,796 L 804,796 L 806,794 L 807,794 L 807,793 L 810,790 L 810,788 L 811,787 L 811,785 L 812,784 L 812,717 L 811,716 L 811,714 L 810,713 L 810,712 L 808,710 L 808,709 L 806,707 L 805,707 L 803,705 L 802,705 L 801,704 L 798,704 L 797,703 L 693,703 L 692,702 Z" fill="black"/>
<path d="M 551,698 L 550,699 L 549,699 L 548,700 L 547,700 L 546,701 L 545,701 L 544,702 L 543,702 L 540,705 L 539,705 L 537,707 L 536,707 L 534,709 L 533,709 L 531,711 L 530,711 L 529,712 L 528,712 L 526,714 L 525,714 L 524,715 L 523,715 L 522,716 L 521,716 L 519,718 L 518,718 L 516,720 L 515,720 L 513,722 L 512,722 L 510,724 L 509,724 L 508,725 L 507,725 L 505,727 L 504,727 L 502,729 L 501,729 L 500,730 L 499,730 L 498,731 L 497,731 L 495,733 L 494,733 L 492,735 L 491,735 L 485,741 L 485,744 L 484,745 L 484,747 L 485,748 L 485,750 L 486,751 L 486,752 L 488,754 L 489,754 L 490,755 L 492,755 L 493,756 L 495,756 L 496,755 L 498,755 L 500,753 L 501,753 L 502,752 L 503,752 L 505,750 L 506,750 L 508,748 L 509,748 L 511,746 L 512,746 L 514,744 L 515,744 L 516,743 L 517,743 L 519,741 L 520,741 L 521,740 L 522,740 L 524,738 L 525,738 L 526,737 L 527,737 L 529,735 L 530,735 L 532,733 L 533,733 L 534,732 L 535,732 L 537,730 L 538,730 L 540,728 L 541,728 L 543,726 L 544,726 L 545,725 L 546,725 L 548,723 L 549,723 L 550,722 L 551,722 L 553,720 L 554,720 L 555,719 L 556,719 L 562,713 L 562,712 L 563,711 L 563,704 L 562,703 L 562,702 L 559,699 L 558,699 L 557,698 Z" fill="black"/>
<path d="M 619,674 L 617,676 L 616,676 L 613,679 L 612,679 L 610,681 L 609,681 L 607,683 L 606,683 L 604,685 L 604,688 L 603,689 L 603,690 L 598,695 L 597,695 L 595,697 L 594,697 L 593,698 L 592,698 L 590,700 L 589,700 L 586,703 L 585,703 L 582,706 L 581,706 L 578,709 L 577,709 L 575,711 L 574,711 L 571,714 L 570,714 L 567,717 L 566,717 L 564,719 L 563,719 L 562,720 L 561,720 L 560,721 L 559,721 L 558,722 L 557,722 L 556,723 L 555,723 L 553,725 L 552,725 L 550,727 L 549,727 L 547,729 L 546,729 L 544,731 L 543,731 L 542,732 L 544,734 L 545,734 L 547,736 L 548,736 L 549,737 L 550,737 L 551,738 L 553,738 L 554,739 L 559,739 L 560,738 L 564,738 L 565,737 L 567,737 L 568,736 L 569,736 L 570,735 L 571,735 L 573,733 L 574,733 L 577,730 L 578,730 L 581,727 L 582,727 L 584,725 L 585,725 L 588,722 L 589,722 L 591,720 L 592,720 L 593,719 L 594,719 L 597,716 L 598,716 L 601,713 L 602,713 L 604,711 L 605,711 L 608,708 L 609,708 L 611,706 L 612,706 L 617,701 L 617,700 L 619,698 L 619,697 L 620,696 L 620,694 L 621,693 L 621,691 L 622,690 L 622,682 L 621,681 L 621,678 L 620,677 L 620,676 L 619,675 Z" fill="black"/>
<path d="M 398,674 L 397,675 L 395,675 L 394,676 L 393,676 L 392,677 L 391,677 L 390,678 L 389,678 L 385,682 L 385,683 L 386,684 L 387,684 L 389,686 L 390,686 L 391,687 L 392,687 L 393,688 L 394,688 L 395,689 L 396,689 L 397,690 L 398,690 L 400,692 L 401,692 L 402,691 L 407,691 L 408,692 L 409,692 L 410,693 L 411,693 L 412,694 L 413,694 L 414,695 L 415,695 L 416,696 L 417,696 L 419,698 L 420,698 L 421,699 L 422,699 L 423,700 L 424,700 L 425,701 L 426,701 L 427,702 L 428,702 L 429,703 L 430,703 L 431,704 L 433,704 L 434,705 L 435,705 L 436,706 L 437,706 L 438,707 L 439,707 L 440,708 L 441,708 L 442,709 L 443,709 L 444,710 L 445,710 L 450,715 L 450,716 L 451,717 L 454,717 L 455,716 L 457,716 L 458,715 L 460,715 L 461,714 L 462,714 L 463,713 L 465,713 L 465,708 L 464,707 L 464,706 L 463,705 L 463,704 L 456,697 L 455,697 L 453,695 L 452,695 L 451,694 L 450,694 L 449,693 L 448,693 L 447,692 L 445,692 L 444,691 L 443,691 L 442,690 L 440,690 L 439,689 L 438,689 L 437,688 L 436,688 L 435,687 L 434,687 L 433,686 L 432,686 L 431,685 L 430,685 L 428,683 L 427,683 L 426,682 L 425,682 L 424,681 L 423,681 L 422,680 L 421,680 L 420,679 L 419,679 L 418,678 L 417,678 L 416,677 L 415,677 L 414,676 L 413,676 L 412,675 L 410,675 L 409,674 Z" fill="black"/>
<path d="M 344,669 L 343,670 L 342,670 L 341,671 L 340,671 L 339,672 L 339,673 L 338,674 L 338,675 L 337,676 L 337,680 L 338,681 L 338,682 L 339,683 L 339,684 L 341,686 L 342,686 L 344,688 L 345,688 L 346,689 L 347,689 L 348,690 L 349,690 L 351,692 L 352,692 L 353,693 L 354,693 L 356,695 L 357,695 L 358,696 L 359,696 L 360,697 L 361,697 L 363,699 L 364,699 L 365,700 L 366,700 L 367,701 L 368,701 L 369,702 L 370,702 L 371,703 L 372,703 L 373,704 L 374,704 L 375,705 L 376,705 L 377,706 L 378,706 L 379,707 L 380,707 L 382,709 L 383,709 L 384,710 L 385,710 L 386,711 L 387,711 L 389,713 L 390,713 L 391,714 L 392,714 L 394,716 L 395,716 L 396,717 L 402,717 L 403,716 L 404,716 L 405,715 L 406,715 L 407,714 L 407,713 L 408,712 L 408,711 L 409,710 L 409,704 L 408,703 L 408,702 L 406,700 L 405,700 L 404,699 L 403,699 L 401,697 L 400,697 L 399,696 L 398,696 L 397,695 L 396,695 L 395,694 L 394,694 L 393,693 L 392,693 L 390,691 L 389,691 L 388,690 L 387,690 L 386,689 L 385,689 L 383,687 L 382,687 L 381,686 L 380,686 L 378,684 L 377,684 L 376,683 L 375,683 L 374,682 L 373,682 L 372,681 L 371,681 L 370,680 L 369,680 L 368,679 L 367,679 L 365,677 L 364,677 L 363,676 L 362,676 L 361,675 L 360,675 L 358,673 L 357,673 L 356,672 L 355,672 L 354,671 L 353,671 L 352,670 L 351,670 L 350,669 Z" fill="black"/>
<path d="M 283,666 L 283,669 L 282,670 L 282,671 L 283,672 L 283,673 L 284,674 L 284,675 L 293,684 L 294,684 L 295,685 L 296,685 L 297,686 L 298,686 L 299,687 L 300,687 L 302,689 L 303,689 L 304,690 L 305,690 L 306,691 L 307,691 L 309,693 L 310,693 L 311,694 L 312,694 L 313,695 L 314,695 L 316,697 L 317,697 L 318,698 L 319,698 L 320,699 L 321,699 L 322,700 L 323,700 L 325,702 L 326,702 L 327,703 L 328,703 L 329,704 L 330,704 L 331,705 L 332,705 L 333,706 L 334,706 L 335,707 L 337,707 L 338,708 L 349,708 L 350,707 L 352,707 L 353,706 L 354,706 L 358,702 L 358,701 L 357,700 L 356,700 L 354,698 L 353,698 L 352,697 L 351,697 L 349,695 L 348,695 L 347,694 L 346,694 L 345,693 L 344,693 L 343,692 L 342,692 L 341,691 L 340,691 L 339,690 L 338,690 L 337,689 L 336,689 L 335,688 L 334,688 L 332,686 L 331,686 L 330,685 L 329,685 L 327,683 L 326,683 L 325,682 L 324,682 L 323,681 L 322,681 L 320,679 L 319,679 L 318,678 L 317,678 L 316,677 L 315,677 L 314,676 L 313,676 L 312,675 L 311,675 L 310,674 L 309,674 L 308,673 L 305,673 L 304,672 L 302,672 L 301,671 L 299,671 L 298,670 L 295,670 L 294,669 L 292,669 L 291,668 L 289,668 L 288,667 L 286,667 L 285,666 Z" fill="black"/>
<path d="M 243,659 L 243,663 L 242,664 L 242,675 L 243,676 L 243,677 L 242,678 L 242,694 L 243,695 L 243,701 L 242,702 L 242,840 L 243,841 L 243,843 L 244,842 L 245,842 L 246,841 L 247,841 L 249,839 L 250,839 L 251,838 L 252,838 L 253,837 L 254,837 L 256,835 L 257,835 L 258,834 L 259,834 L 260,833 L 261,833 L 262,832 L 263,832 L 265,830 L 266,830 L 267,829 L 268,829 L 270,827 L 271,827 L 272,826 L 273,826 L 274,825 L 275,825 L 276,824 L 278,824 L 279,823 L 282,823 L 283,822 L 286,822 L 287,821 L 298,821 L 299,820 L 302,820 L 303,819 L 304,819 L 307,816 L 307,815 L 308,814 L 308,812 L 309,811 L 309,810 L 310,809 L 310,808 L 311,807 L 311,806 L 313,804 L 313,803 L 319,797 L 320,797 L 323,794 L 324,794 L 326,792 L 327,792 L 328,791 L 329,791 L 331,789 L 332,789 L 333,788 L 334,788 L 336,786 L 337,786 L 339,784 L 340,784 L 341,783 L 342,783 L 343,782 L 344,782 L 346,780 L 347,780 L 348,779 L 349,779 L 350,778 L 351,778 L 352,777 L 353,777 L 355,775 L 356,775 L 357,774 L 358,774 L 359,773 L 360,773 L 362,771 L 363,771 L 364,770 L 365,770 L 367,768 L 368,768 L 369,767 L 370,767 L 371,766 L 372,766 L 373,765 L 375,765 L 376,764 L 378,764 L 379,763 L 384,763 L 385,762 L 391,762 L 392,763 L 396,763 L 397,764 L 399,764 L 400,765 L 402,765 L 403,766 L 404,766 L 405,767 L 407,767 L 408,768 L 409,768 L 410,767 L 411,767 L 412,766 L 412,763 L 407,758 L 406,758 L 404,756 L 403,756 L 402,755 L 401,755 L 400,754 L 399,754 L 398,753 L 397,753 L 396,752 L 395,752 L 393,750 L 392,750 L 391,749 L 390,749 L 389,748 L 388,748 L 387,747 L 386,747 L 385,746 L 384,746 L 383,745 L 382,745 L 381,744 L 380,744 L 378,742 L 377,742 L 368,733 L 368,732 L 367,731 L 367,730 L 365,728 L 365,726 L 364,725 L 364,724 L 363,723 L 363,722 L 362,721 L 362,720 L 361,719 L 361,718 L 360,717 L 359,717 L 358,716 L 353,716 L 352,717 L 346,717 L 345,718 L 343,718 L 342,717 L 338,717 L 337,716 L 334,716 L 333,715 L 331,715 L 330,714 L 329,714 L 328,713 L 327,713 L 326,712 L 325,712 L 324,711 L 323,711 L 321,709 L 320,709 L 319,708 L 318,708 L 317,707 L 316,707 L 314,705 L 313,705 L 312,704 L 311,704 L 310,703 L 309,703 L 307,701 L 306,701 L 305,700 L 304,700 L 303,699 L 302,699 L 300,697 L 299,697 L 298,696 L 297,696 L 296,695 L 295,695 L 294,694 L 293,694 L 292,693 L 291,693 L 289,691 L 288,691 L 279,682 L 279,681 L 277,679 L 277,678 L 275,676 L 275,674 L 273,672 L 273,671 L 271,669 L 270,669 L 269,668 L 268,668 L 267,667 L 263,667 L 262,666 L 259,666 L 258,665 L 256,665 L 255,664 L 253,664 L 252,663 L 251,663 L 250,662 L 248,662 L 247,661 L 246,661 L 244,659 Z" fill="black"/>
<path d="M 581,647 L 580,648 L 577,648 L 576,649 L 575,649 L 573,651 L 572,651 L 570,653 L 569,653 L 567,655 L 566,655 L 563,658 L 562,658 L 560,660 L 559,660 L 556,663 L 555,663 L 553,665 L 552,665 L 550,667 L 549,667 L 547,669 L 546,669 L 543,672 L 542,672 L 540,674 L 539,674 L 536,677 L 535,677 L 533,679 L 532,679 L 525,686 L 525,687 L 524,688 L 524,689 L 523,690 L 523,691 L 522,692 L 522,695 L 521,696 L 521,703 L 522,704 L 522,706 L 523,707 L 523,709 L 525,709 L 527,707 L 528,707 L 529,706 L 530,706 L 531,705 L 532,705 L 534,703 L 535,703 L 537,701 L 538,701 L 539,700 L 539,697 L 546,690 L 547,690 L 549,688 L 550,688 L 552,686 L 553,686 L 555,684 L 556,684 L 558,682 L 559,682 L 561,680 L 562,680 L 564,678 L 565,678 L 568,675 L 569,675 L 571,673 L 572,673 L 574,671 L 575,671 L 577,669 L 578,669 L 580,667 L 581,667 L 582,666 L 583,666 L 585,664 L 586,664 L 589,661 L 590,661 L 594,657 L 595,657 L 599,653 L 600,653 L 600,652 L 599,651 L 598,651 L 596,649 L 595,649 L 594,648 L 592,648 L 591,647 Z" fill="black"/>
<path d="M 638,630 L 637,631 L 636,631 L 635,632 L 634,632 L 631,635 L 630,635 L 626,639 L 625,639 L 622,642 L 621,642 L 618,645 L 617,645 L 614,648 L 613,648 L 611,650 L 610,650 L 606,654 L 605,654 L 601,658 L 600,658 L 597,661 L 596,661 L 594,663 L 593,663 L 590,666 L 589,666 L 586,669 L 585,669 L 583,671 L 583,672 L 581,674 L 581,682 L 582,683 L 582,684 L 585,687 L 587,687 L 588,688 L 592,688 L 593,687 L 594,687 L 595,686 L 596,686 L 599,683 L 600,683 L 603,680 L 604,680 L 607,677 L 608,677 L 612,673 L 613,673 L 617,669 L 618,669 L 621,666 L 622,666 L 625,663 L 626,663 L 629,660 L 630,660 L 633,657 L 634,657 L 637,654 L 638,654 L 641,651 L 642,651 L 644,649 L 645,649 L 649,645 L 649,644 L 650,643 L 650,636 L 649,635 L 649,634 L 646,631 L 645,631 L 644,630 Z" fill="black"/>
<path d="M 267,629 L 266,630 L 264,630 L 263,631 L 262,631 L 261,632 L 261,633 L 259,635 L 259,636 L 258,637 L 258,642 L 260,644 L 260,645 L 264,649 L 265,649 L 268,652 L 269,652 L 271,654 L 272,654 L 274,656 L 275,656 L 277,658 L 278,658 L 279,659 L 280,659 L 281,660 L 282,660 L 283,661 L 284,661 L 285,662 L 286,662 L 287,663 L 290,663 L 291,664 L 293,664 L 294,665 L 296,665 L 297,666 L 299,666 L 300,667 L 303,667 L 304,668 L 307,668 L 308,669 L 315,669 L 316,668 L 317,668 L 320,665 L 320,664 L 321,663 L 321,658 L 320,657 L 320,656 L 319,655 L 319,654 L 318,653 L 317,653 L 316,652 L 315,652 L 314,651 L 311,651 L 310,650 L 307,650 L 306,649 L 304,649 L 303,648 L 301,648 L 300,647 L 298,647 L 297,646 L 296,646 L 295,645 L 293,645 L 292,644 L 291,644 L 290,643 L 289,643 L 288,642 L 287,642 L 284,639 L 283,639 L 278,634 L 277,634 L 273,630 L 272,630 L 271,629 Z" fill="black"/>
<path d="M 307,625 L 306,626 L 304,626 L 303,627 L 302,627 L 302,639 L 303,640 L 303,643 L 304,644 L 306,644 L 307,645 L 308,645 L 309,646 L 312,646 L 312,644 L 313,643 L 318,643 L 319,644 L 320,644 L 321,645 L 322,645 L 323,646 L 324,646 L 325,647 L 326,647 L 327,648 L 328,648 L 330,650 L 331,650 L 332,651 L 333,651 L 334,652 L 335,652 L 336,653 L 337,653 L 339,655 L 340,655 L 341,656 L 342,656 L 343,657 L 344,657 L 346,659 L 347,659 L 348,660 L 349,660 L 350,661 L 351,661 L 352,662 L 353,662 L 355,664 L 356,664 L 358,666 L 358,667 L 361,670 L 362,670 L 363,671 L 364,671 L 365,672 L 366,672 L 367,673 L 368,673 L 369,674 L 370,674 L 371,675 L 373,675 L 374,676 L 375,676 L 375,674 L 376,673 L 376,665 L 375,664 L 375,662 L 374,661 L 374,660 L 373,659 L 373,658 L 372,657 L 372,656 L 369,653 L 368,653 L 364,649 L 363,649 L 362,648 L 361,648 L 360,647 L 359,647 L 358,646 L 357,646 L 356,645 L 355,645 L 353,643 L 352,643 L 351,642 L 350,642 L 349,641 L 348,641 L 346,639 L 345,639 L 344,638 L 343,638 L 341,636 L 340,636 L 339,635 L 338,635 L 337,634 L 336,634 L 335,633 L 334,633 L 332,631 L 331,631 L 330,630 L 329,630 L 328,629 L 327,629 L 326,628 L 325,628 L 324,627 L 322,627 L 321,626 L 319,626 L 318,625 Z" fill="black"/>
<path d="M 703,615 L 701,617 L 700,617 L 699,618 L 698,618 L 697,619 L 696,619 L 695,620 L 693,620 L 692,621 L 691,621 L 690,622 L 689,622 L 688,623 L 687,623 L 686,624 L 685,624 L 681,628 L 680,628 L 678,630 L 677,630 L 674,633 L 673,633 L 670,636 L 669,636 L 666,639 L 665,639 L 661,643 L 660,643 L 657,646 L 656,646 L 653,649 L 652,649 L 650,651 L 649,651 L 647,653 L 646,653 L 644,655 L 643,655 L 640,658 L 639,658 L 636,661 L 635,661 L 633,663 L 632,663 L 632,665 L 633,665 L 636,668 L 638,668 L 639,669 L 643,669 L 644,670 L 646,670 L 647,669 L 652,669 L 653,668 L 654,668 L 655,667 L 656,667 L 657,666 L 658,666 L 659,665 L 660,665 L 662,663 L 663,663 L 667,659 L 668,659 L 671,656 L 672,656 L 675,653 L 676,653 L 680,649 L 681,649 L 683,647 L 684,647 L 687,644 L 688,644 L 692,640 L 693,640 L 702,631 L 702,630 L 703,629 L 703,628 L 704,627 L 704,624 L 705,623 L 705,618 L 704,617 L 704,615 Z" fill="black"/>
<path d="M 746,599 L 743,602 L 742,602 L 738,606 L 737,606 L 733,610 L 732,610 L 730,612 L 729,612 L 728,613 L 727,613 L 726,614 L 725,614 L 724,615 L 722,615 L 721,616 L 720,616 L 719,617 L 718,617 L 715,620 L 715,622 L 714,623 L 714,625 L 713,626 L 713,629 L 712,630 L 712,631 L 711,632 L 711,633 L 710,634 L 710,635 L 706,639 L 706,640 L 702,644 L 701,644 L 697,648 L 696,648 L 694,650 L 693,650 L 690,653 L 689,653 L 686,656 L 685,656 L 682,659 L 681,659 L 678,662 L 677,662 L 674,665 L 673,665 L 670,668 L 669,668 L 666,671 L 665,671 L 662,674 L 661,674 L 660,675 L 659,675 L 658,676 L 657,676 L 656,677 L 653,677 L 652,678 L 649,678 L 648,679 L 640,679 L 639,678 L 635,678 L 632,681 L 632,683 L 631,684 L 631,692 L 630,693 L 630,695 L 629,696 L 629,698 L 628,699 L 628,700 L 626,702 L 626,703 L 624,705 L 624,706 L 617,713 L 616,713 L 613,716 L 612,716 L 611,717 L 610,717 L 608,719 L 607,719 L 605,721 L 604,721 L 601,724 L 600,724 L 598,726 L 597,726 L 595,728 L 594,728 L 592,730 L 591,730 L 589,732 L 588,732 L 585,735 L 584,735 L 581,738 L 580,738 L 577,741 L 576,741 L 575,742 L 574,742 L 572,744 L 571,744 L 570,745 L 568,745 L 567,746 L 566,746 L 565,747 L 561,747 L 560,748 L 553,748 L 552,747 L 548,747 L 547,746 L 546,746 L 545,747 L 543,747 L 540,750 L 540,752 L 539,753 L 539,757 L 538,758 L 538,761 L 537,762 L 537,767 L 540,770 L 541,770 L 542,771 L 547,771 L 548,770 L 550,770 L 551,769 L 553,769 L 555,767 L 557,767 L 558,766 L 561,766 L 562,765 L 565,765 L 566,764 L 573,764 L 574,765 L 578,765 L 579,766 L 582,766 L 583,767 L 584,767 L 585,768 L 586,768 L 587,769 L 588,769 L 589,770 L 590,770 L 592,772 L 593,772 L 594,773 L 595,773 L 596,774 L 597,774 L 599,776 L 600,776 L 601,777 L 602,777 L 603,778 L 604,778 L 605,779 L 606,779 L 607,780 L 608,780 L 610,782 L 611,782 L 612,783 L 613,783 L 614,784 L 615,784 L 617,786 L 618,786 L 619,787 L 620,787 L 622,789 L 623,789 L 624,790 L 625,790 L 626,791 L 627,791 L 629,793 L 630,793 L 634,797 L 635,797 L 641,803 L 641,804 L 643,806 L 643,807 L 645,809 L 645,811 L 646,812 L 646,813 L 647,814 L 647,818 L 648,819 L 648,823 L 649,824 L 649,825 L 650,826 L 654,826 L 655,825 L 657,825 L 658,824 L 661,824 L 662,823 L 674,823 L 675,824 L 678,824 L 679,825 L 681,825 L 682,826 L 683,826 L 684,827 L 685,827 L 686,828 L 687,828 L 688,829 L 689,829 L 690,830 L 691,830 L 692,831 L 693,831 L 694,832 L 695,832 L 697,834 L 698,834 L 699,835 L 700,835 L 701,836 L 702,836 L 703,837 L 704,837 L 706,839 L 707,839 L 708,840 L 709,840 L 710,841 L 711,841 L 713,843 L 714,843 L 715,844 L 716,844 L 718,846 L 719,846 L 720,847 L 721,847 L 722,848 L 723,848 L 724,849 L 725,849 L 726,850 L 727,850 L 728,851 L 729,851 L 730,852 L 731,852 L 733,854 L 734,854 L 735,855 L 736,855 L 740,859 L 741,859 L 743,861 L 743,862 L 748,867 L 748,868 L 750,870 L 750,872 L 751,873 L 751,874 L 751,810 L 689,810 L 688,809 L 683,809 L 682,808 L 678,808 L 677,807 L 675,807 L 674,806 L 672,806 L 671,805 L 670,805 L 669,804 L 668,804 L 667,803 L 666,803 L 664,801 L 663,801 L 661,799 L 660,799 L 648,787 L 648,786 L 646,784 L 646,783 L 645,782 L 645,781 L 643,779 L 643,777 L 642,776 L 642,775 L 641,774 L 641,771 L 640,770 L 640,768 L 639,767 L 639,736 L 640,735 L 640,732 L 641,731 L 641,729 L 642,728 L 642,726 L 643,725 L 643,724 L 644,723 L 644,722 L 645,721 L 645,720 L 647,718 L 647,717 L 648,716 L 648,715 L 650,713 L 650,712 L 657,705 L 658,705 L 662,701 L 663,701 L 664,700 L 665,700 L 667,698 L 668,698 L 669,697 L 670,697 L 671,696 L 673,696 L 674,695 L 675,695 L 676,694 L 679,694 L 680,693 L 684,693 L 685,692 L 751,692 L 751,607 L 750,606 L 750,604 L 749,603 L 749,602 L 748,601 L 748,600 L 747,599 Z" fill="black"/>
<path d="M 229,581 L 228,582 L 225,582 L 224,583 L 223,583 L 222,584 L 221,584 L 220,585 L 219,585 L 213,591 L 213,592 L 211,594 L 211,595 L 210,596 L 210,598 L 209,599 L 209,602 L 208,603 L 208,609 L 209,610 L 209,614 L 210,615 L 210,616 L 211,617 L 211,618 L 212,619 L 212,620 L 213,621 L 213,622 L 214,623 L 214,624 L 223,633 L 224,633 L 226,635 L 227,635 L 230,638 L 231,638 L 234,641 L 235,641 L 238,644 L 239,644 L 242,647 L 243,647 L 245,649 L 246,649 L 249,652 L 250,652 L 251,653 L 252,653 L 253,654 L 254,654 L 255,655 L 256,655 L 257,656 L 258,656 L 259,657 L 262,657 L 263,658 L 267,658 L 268,657 L 268,656 L 267,656 L 257,646 L 257,645 L 255,643 L 255,642 L 254,641 L 254,639 L 255,638 L 255,636 L 251,632 L 250,632 L 247,629 L 246,629 L 243,626 L 242,626 L 240,624 L 239,624 L 229,614 L 229,613 L 228,612 L 228,611 L 227,610 L 227,604 L 228,603 L 228,602 L 229,601 L 230,601 L 231,600 L 233,600 L 234,599 L 236,599 L 237,600 L 239,600 L 240,601 L 241,601 L 243,603 L 244,603 L 246,605 L 247,605 L 250,608 L 251,608 L 254,611 L 255,611 L 257,613 L 258,613 L 261,616 L 262,616 L 266,620 L 267,620 L 270,623 L 271,623 L 275,627 L 276,627 L 280,631 L 281,631 L 284,634 L 285,634 L 287,636 L 288,636 L 289,637 L 290,637 L 291,638 L 292,638 L 293,639 L 294,639 L 294,638 L 295,637 L 295,629 L 294,628 L 294,626 L 293,625 L 293,623 L 291,621 L 291,620 L 284,613 L 283,613 L 280,610 L 279,610 L 275,606 L 274,606 L 272,604 L 271,604 L 268,601 L 267,601 L 264,598 L 263,598 L 260,595 L 259,595 L 257,593 L 256,593 L 254,591 L 253,591 L 252,590 L 251,590 L 249,588 L 248,588 L 246,586 L 245,586 L 243,584 L 242,584 L 240,582 L 239,582 L 238,581 Z" fill="black"/>
<path d="M 669,579 L 668,580 L 666,580 L 665,581 L 663,581 L 662,582 L 661,582 L 660,583 L 659,583 L 658,584 L 657,584 L 655,586 L 654,586 L 651,589 L 650,589 L 647,592 L 646,592 L 642,596 L 641,596 L 639,598 L 638,598 L 634,602 L 633,602 L 630,605 L 629,605 L 626,608 L 625,608 L 622,611 L 621,611 L 614,618 L 614,619 L 612,621 L 612,622 L 611,623 L 611,624 L 610,625 L 610,629 L 609,630 L 609,634 L 610,635 L 610,638 L 611,639 L 611,641 L 612,642 L 612,643 L 614,641 L 615,641 L 616,640 L 617,640 L 620,637 L 621,637 L 624,634 L 625,634 L 627,632 L 627,629 L 632,624 L 633,624 L 636,621 L 637,621 L 640,618 L 641,618 L 644,615 L 645,615 L 648,612 L 649,612 L 652,609 L 653,609 L 656,606 L 657,606 L 660,603 L 661,603 L 665,599 L 666,599 L 667,598 L 668,598 L 669,597 L 672,597 L 674,599 L 677,599 L 678,598 L 679,598 L 682,595 L 682,593 L 681,592 L 681,589 L 680,588 L 680,582 L 679,581 L 679,580 L 678,579 Z" fill="black"/>
<path d="M 716,576 L 715,577 L 713,577 L 708,582 L 707,582 L 706,583 L 706,584 L 701,589 L 700,589 L 695,594 L 694,594 L 692,596 L 691,596 L 689,598 L 688,598 L 687,599 L 686,599 L 685,600 L 684,600 L 683,601 L 682,601 L 681,602 L 680,602 L 679,603 L 678,603 L 677,604 L 676,604 L 675,605 L 673,605 L 672,606 L 671,606 L 670,607 L 669,607 L 667,609 L 667,610 L 666,611 L 666,613 L 665,614 L 666,615 L 666,618 L 667,619 L 667,620 L 668,621 L 669,621 L 671,623 L 677,623 L 678,622 L 680,622 L 681,621 L 682,621 L 683,620 L 684,620 L 685,619 L 686,619 L 687,618 L 689,618 L 690,617 L 691,617 L 692,616 L 693,616 L 694,615 L 695,615 L 696,614 L 697,614 L 698,613 L 699,613 L 700,612 L 701,612 L 702,611 L 703,611 L 705,609 L 706,609 L 707,608 L 708,608 L 714,602 L 715,602 L 724,593 L 724,592 L 725,591 L 725,589 L 726,588 L 726,585 L 725,584 L 725,583 L 724,582 L 724,581 L 721,578 L 720,578 L 719,577 L 717,577 Z" fill="black"/>
<path d="M 770,572 L 770,573 L 769,574 L 769,575 L 767,577 L 767,578 L 764,581 L 764,582 L 758,588 L 758,589 L 759,590 L 760,590 L 762,592 L 762,593 L 765,596 L 765,597 L 766,598 L 766,600 L 767,601 L 767,604 L 768,605 L 768,691 L 769,692 L 784,692 L 785,693 L 786,692 L 786,592 L 785,591 L 785,589 L 784,588 L 784,586 L 783,585 L 783,584 L 782,583 L 782,582 L 781,581 L 781,580 L 775,574 L 774,574 L 773,573 L 772,573 L 771,572 Z" fill="black"/>
<path d="M 277,530 L 276,531 L 273,531 L 272,532 L 270,532 L 269,533 L 268,533 L 267,534 L 266,534 L 265,535 L 264,535 L 263,536 L 262,536 L 260,538 L 259,538 L 253,544 L 253,545 L 250,548 L 250,549 L 249,550 L 249,551 L 248,552 L 248,554 L 247,555 L 247,557 L 246,558 L 246,580 L 247,581 L 247,582 L 248,582 L 249,583 L 250,583 L 251,584 L 252,584 L 253,585 L 255,585 L 256,586 L 257,586 L 258,587 L 261,587 L 262,588 L 264,588 L 265,589 L 267,589 L 268,590 L 269,590 L 272,593 L 272,594 L 273,594 L 278,599 L 279,599 L 283,603 L 284,603 L 287,606 L 288,606 L 294,612 L 295,612 L 300,617 L 305,617 L 306,616 L 319,616 L 320,617 L 323,617 L 324,618 L 326,618 L 327,619 L 328,619 L 329,620 L 330,620 L 331,621 L 332,621 L 334,623 L 335,623 L 336,624 L 337,624 L 339,626 L 340,626 L 341,627 L 342,627 L 343,628 L 344,628 L 345,629 L 346,629 L 348,631 L 349,631 L 350,632 L 351,632 L 352,633 L 353,633 L 354,634 L 355,634 L 356,635 L 357,635 L 359,637 L 360,637 L 361,638 L 362,638 L 363,639 L 364,639 L 366,641 L 367,641 L 369,643 L 370,643 L 372,645 L 373,645 L 378,650 L 378,651 L 381,654 L 381,655 L 383,657 L 383,658 L 384,659 L 384,660 L 385,661 L 385,662 L 388,665 L 390,665 L 391,666 L 394,666 L 395,665 L 410,665 L 411,666 L 413,666 L 414,667 L 416,667 L 417,668 L 419,668 L 420,669 L 421,669 L 423,671 L 424,671 L 425,672 L 426,672 L 427,673 L 428,673 L 430,675 L 431,675 L 432,676 L 433,676 L 434,677 L 435,677 L 437,679 L 439,679 L 440,680 L 441,680 L 442,681 L 443,681 L 444,682 L 446,682 L 447,683 L 449,683 L 450,684 L 452,684 L 453,685 L 454,685 L 455,686 L 457,686 L 459,688 L 460,688 L 471,699 L 471,700 L 473,702 L 473,703 L 474,704 L 474,705 L 475,706 L 475,707 L 479,711 L 480,711 L 481,712 L 482,712 L 483,713 L 488,713 L 489,712 L 490,712 L 491,711 L 493,711 L 494,710 L 495,710 L 497,708 L 499,708 L 500,707 L 501,707 L 502,706 L 503,706 L 504,705 L 505,705 L 507,703 L 508,703 L 510,701 L 510,700 L 511,699 L 511,698 L 512,697 L 512,694 L 513,693 L 513,691 L 514,690 L 514,689 L 515,688 L 515,687 L 516,686 L 516,685 L 518,683 L 518,682 L 521,679 L 521,678 L 526,673 L 527,673 L 530,670 L 531,670 L 534,667 L 535,667 L 537,665 L 538,665 L 540,663 L 541,663 L 544,660 L 545,660 L 548,657 L 549,657 L 551,655 L 552,655 L 555,652 L 556,652 L 558,650 L 559,650 L 560,649 L 561,649 L 564,646 L 565,646 L 567,644 L 568,644 L 570,642 L 571,642 L 572,641 L 573,641 L 574,640 L 576,640 L 577,639 L 580,639 L 581,638 L 593,638 L 594,637 L 595,637 L 598,634 L 598,633 L 599,632 L 599,630 L 600,629 L 600,626 L 601,625 L 601,624 L 602,623 L 602,621 L 603,620 L 603,619 L 604,618 L 604,617 L 607,614 L 607,613 L 615,605 L 616,605 L 619,602 L 620,602 L 624,598 L 625,598 L 628,595 L 629,595 L 631,593 L 632,593 L 635,590 L 636,590 L 638,588 L 639,588 L 640,587 L 641,587 L 642,586 L 632,586 L 631,585 L 281,585 L 280,584 L 278,584 L 277,583 L 276,583 L 275,582 L 274,582 L 267,575 L 267,574 L 266,573 L 266,571 L 265,570 L 265,564 L 266,563 L 266,560 L 267,559 L 267,558 L 274,551 L 275,551 L 276,550 L 277,550 L 278,549 L 280,549 L 281,548 L 285,548 L 286,547 L 700,547 L 708,539 L 708,538 L 713,533 L 714,533 L 715,532 L 716,532 L 717,531 L 718,531 L 719,530 L 720,530 Z" fill="black"/>
<path d="M 741,527 L 740,528 L 736,528 L 735,529 L 733,529 L 732,530 L 731,530 L 730,531 L 729,531 L 728,532 L 727,532 L 725,534 L 724,534 L 697,561 L 697,562 L 692,567 L 692,568 L 690,570 L 690,571 L 689,572 L 689,573 L 688,574 L 688,576 L 687,577 L 687,588 L 688,589 L 688,590 L 689,591 L 691,591 L 700,582 L 701,582 L 701,581 L 729,553 L 730,553 L 734,549 L 735,549 L 737,547 L 739,547 L 740,546 L 746,546 L 747,547 L 748,547 L 750,549 L 750,551 L 751,552 L 751,553 L 750,554 L 750,557 L 749,558 L 749,559 L 748,560 L 748,561 L 744,565 L 740,565 L 739,566 L 736,566 L 735,567 L 734,567 L 733,568 L 732,568 L 731,569 L 730,569 L 729,570 L 728,570 L 726,572 L 726,574 L 731,579 L 731,586 L 730,587 L 730,589 L 728,591 L 728,592 L 726,594 L 726,595 L 721,600 L 721,601 L 717,605 L 717,606 L 723,606 L 724,605 L 725,605 L 726,604 L 727,604 L 729,602 L 730,602 L 736,596 L 737,596 L 743,590 L 744,590 L 762,572 L 762,571 L 764,569 L 764,568 L 765,567 L 765,566 L 766,565 L 766,564 L 767,563 L 767,561 L 768,560 L 768,557 L 769,556 L 769,548 L 768,547 L 768,544 L 767,543 L 767,542 L 766,541 L 766,540 L 765,539 L 765,538 L 759,532 L 758,532 L 756,530 L 755,530 L 754,529 L 752,529 L 751,528 L 747,528 L 746,527 Z" fill="black"/>
</svg>